<mxfile host="app.diagrams.net" agent="Mozilla/5.0 (Windows NT 10.0; Win64; x64) AppleWebKit/537.36 (KHTML, like Gecko) Chrome/132.0.0.0 Safari/537.36" version="26.0.11">
  <diagram name="PÃ¡gina-1" id="wak5q31eRKLDHB5pYUfP">
    <mxGraphModel dx="3447" dy="1513" grid="1" gridSize="10" guides="1" tooltips="1" connect="1" arrows="1" fold="1" page="1" pageScale="1" pageWidth="827" pageHeight="1169" math="0" shadow="0">
      <root>
        <mxCell id="0" />
        <mxCell id="1" parent="0" />
        <mxCell id="RC3zjSmgozNrkf4qFn7A-2" value="Usuario" style="swimlane;fontStyle=1;align=center;verticalAlign=top;childLayout=stackLayout;horizontal=1;startSize=26;horizontalStack=0;resizeParent=1;resizeParentMax=0;resizeLast=0;collapsible=1;marginBottom=0;whiteSpace=wrap;html=1;" vertex="1" parent="1">
          <mxGeometry x="630" y="390" width="160" height="180" as="geometry" />
        </mxCell>
        <mxCell id="RC3zjSmgozNrkf4qFn7A-3" value="- id: Long&lt;div&gt;- nome: String&lt;/div&gt;&lt;div&gt;- login: String&lt;/div&gt;&lt;div&gt;- senha: String&lt;/div&gt;&lt;div&gt;- role: RoleEnum&lt;/div&gt;" style="text;strokeColor=none;fillColor=none;align=left;verticalAlign=top;spacingLeft=4;spacingRight=4;overflow=hidden;rotatable=0;points=[[0,0.5],[1,0.5]];portConstraint=eastwest;whiteSpace=wrap;html=1;" vertex="1" parent="RC3zjSmgozNrkf4qFn7A-2">
          <mxGeometry y="26" width="160" height="84" as="geometry" />
        </mxCell>
        <mxCell id="RC3zjSmgozNrkf4qFn7A-4" value="" style="line;strokeWidth=1;fillColor=none;align=left;verticalAlign=middle;spacingTop=-1;spacingLeft=3;spacingRight=3;rotatable=0;labelPosition=right;points=[];portConstraint=eastwest;strokeColor=inherit;" vertex="1" parent="RC3zjSmgozNrkf4qFn7A-2">
          <mxGeometry y="110" width="160" height="8" as="geometry" />
        </mxCell>
        <mxCell id="RC3zjSmgozNrkf4qFn7A-5" value="+ getAuthorities()&lt;div&gt;+ getPassword()&lt;/div&gt;&lt;div&gt;+ getUsername()&lt;/div&gt;" style="text;strokeColor=none;fillColor=none;align=left;verticalAlign=top;spacingLeft=4;spacingRight=4;overflow=hidden;rotatable=0;points=[[0,0.5],[1,0.5]];portConstraint=eastwest;whiteSpace=wrap;html=1;" vertex="1" parent="RC3zjSmgozNrkf4qFn7A-2">
          <mxGeometry y="118" width="160" height="62" as="geometry" />
        </mxCell>
        <mxCell id="RC3zjSmgozNrkf4qFn7A-6" value="RoleEnum" style="swimlane;fontStyle=0;childLayout=stackLayout;horizontal=1;startSize=26;fillColor=none;horizontalStack=0;resizeParent=1;resizeParentMax=0;resizeLast=0;collapsible=1;marginBottom=0;whiteSpace=wrap;html=1;" vertex="1" parent="1">
          <mxGeometry x="640" y="646" width="140" height="78" as="geometry" />
        </mxCell>
        <mxCell id="RC3zjSmgozNrkf4qFn7A-7" value="- ADMIN: RoleEnum" style="text;strokeColor=none;fillColor=none;align=left;verticalAlign=top;spacingLeft=4;spacingRight=4;overflow=hidden;rotatable=0;points=[[0,0.5],[1,0.5]];portConstraint=eastwest;whiteSpace=wrap;html=1;" vertex="1" parent="RC3zjSmgozNrkf4qFn7A-6">
          <mxGeometry y="26" width="140" height="26" as="geometry" />
        </mxCell>
        <mxCell id="RC3zjSmgozNrkf4qFn7A-8" value="- USER: RoleEnum" style="text;strokeColor=none;fillColor=none;align=left;verticalAlign=top;spacingLeft=4;spacingRight=4;overflow=hidden;rotatable=0;points=[[0,0.5],[1,0.5]];portConstraint=eastwest;whiteSpace=wrap;html=1;" vertex="1" parent="RC3zjSmgozNrkf4qFn7A-6">
          <mxGeometry y="52" width="140" height="26" as="geometry" />
        </mxCell>
        <mxCell id="RC3zjSmgozNrkf4qFn7A-10" value="&lt;p style=&quot;margin:0px;margin-top:4px;text-align:center;&quot;&gt;&lt;i&gt;&amp;lt;&amp;lt;Interface&amp;gt;&amp;gt;&lt;/i&gt;&lt;br&gt;&lt;b&gt;UsuarioRepository&lt;/b&gt;&lt;/p&gt;&lt;hr size=&quot;1&quot; style=&quot;border-style:solid;&quot;&gt;&lt;p style=&quot;margin:0px;margin-left:4px;&quot;&gt;+ findByLogin(String)&lt;/p&gt;" style="verticalAlign=top;align=left;overflow=fill;html=1;whiteSpace=wrap;" vertex="1" parent="1">
          <mxGeometry x="355" y="390" width="190" height="70" as="geometry" />
        </mxCell>
        <mxCell id="RC3zjSmgozNrkf4qFn7A-11" value="UsuarioServiceImpl" style="swimlane;fontStyle=1;align=center;verticalAlign=top;childLayout=stackLayout;horizontal=1;startSize=26;horizontalStack=0;resizeParent=1;resizeParentMax=0;resizeLast=0;collapsible=1;marginBottom=0;whiteSpace=wrap;html=1;" vertex="1" parent="1">
          <mxGeometry x="340" y="530" width="190" height="110" as="geometry" />
        </mxCell>
        <mxCell id="RC3zjSmgozNrkf4qFn7A-12" value="- usuarioRepository&lt;div&gt;- passwordEncoder&lt;/div&gt;" style="text;strokeColor=none;fillColor=none;align=left;verticalAlign=top;spacingLeft=4;spacingRight=4;overflow=hidden;rotatable=0;points=[[0,0.5],[1,0.5]];portConstraint=eastwest;whiteSpace=wrap;html=1;" vertex="1" parent="RC3zjSmgozNrkf4qFn7A-11">
          <mxGeometry y="26" width="190" height="34" as="geometry" />
        </mxCell>
        <mxCell id="RC3zjSmgozNrkf4qFn7A-13" value="" style="line;strokeWidth=1;fillColor=none;align=left;verticalAlign=middle;spacingTop=-1;spacingLeft=3;spacingRight=3;rotatable=0;labelPosition=right;points=[];portConstraint=eastwest;strokeColor=inherit;" vertex="1" parent="RC3zjSmgozNrkf4qFn7A-11">
          <mxGeometry y="60" width="190" height="8" as="geometry" />
        </mxCell>
        <mxCell id="RC3zjSmgozNrkf4qFn7A-14" value="+ salvar(UsuarioDto) UsuarioDto" style="text;strokeColor=none;fillColor=none;align=left;verticalAlign=top;spacingLeft=4;spacingRight=4;overflow=hidden;rotatable=0;points=[[0,0.5],[1,0.5]];portConstraint=eastwest;whiteSpace=wrap;html=1;" vertex="1" parent="RC3zjSmgozNrkf4qFn7A-11">
          <mxGeometry y="68" width="190" height="42" as="geometry" />
        </mxCell>
        <mxCell id="RC3zjSmgozNrkf4qFn7A-15" value="AutenticacaoServiceImpl" style="swimlane;fontStyle=1;align=center;verticalAlign=top;childLayout=stackLayout;horizontal=1;startSize=26;horizontalStack=0;resizeParent=1;resizeParentMax=0;resizeLast=0;collapsible=1;marginBottom=0;whiteSpace=wrap;html=1;" vertex="1" parent="1">
          <mxGeometry x="340" y="210" width="240" height="110" as="geometry" />
        </mxCell>
        <mxCell id="RC3zjSmgozNrkf4qFn7A-16" value="- usuarioRepository" style="text;strokeColor=none;fillColor=none;align=left;verticalAlign=top;spacingLeft=4;spacingRight=4;overflow=hidden;rotatable=0;points=[[0,0.5],[1,0.5]];portConstraint=eastwest;whiteSpace=wrap;html=1;" vertex="1" parent="RC3zjSmgozNrkf4qFn7A-15">
          <mxGeometry y="26" width="240" height="26" as="geometry" />
        </mxCell>
        <mxCell id="RC3zjSmgozNrkf4qFn7A-17" value="" style="line;strokeWidth=1;fillColor=none;align=left;verticalAlign=middle;spacingTop=-1;spacingLeft=3;spacingRight=3;rotatable=0;labelPosition=right;points=[];portConstraint=eastwest;strokeColor=inherit;" vertex="1" parent="RC3zjSmgozNrkf4qFn7A-15">
          <mxGeometry y="52" width="240" height="8" as="geometry" />
        </mxCell>
        <mxCell id="RC3zjSmgozNrkf4qFn7A-18" value="+ obterToken(AuthDto): String&lt;div&gt;+ validaTokenJwt(String): String&lt;/div&gt;" style="text;strokeColor=none;fillColor=none;align=left;verticalAlign=top;spacingLeft=4;spacingRight=4;overflow=hidden;rotatable=0;points=[[0,0.5],[1,0.5]];portConstraint=eastwest;whiteSpace=wrap;html=1;" vertex="1" parent="RC3zjSmgozNrkf4qFn7A-15">
          <mxGeometry y="60" width="240" height="50" as="geometry" />
        </mxCell>
        <mxCell id="RC3zjSmgozNrkf4qFn7A-19" value="SecurityConfiguration" style="swimlane;fontStyle=1;align=center;verticalAlign=top;childLayout=stackLayout;horizontal=1;startSize=26;horizontalStack=0;resizeParent=1;resizeParentMax=0;resizeLast=0;collapsible=1;marginBottom=0;whiteSpace=wrap;html=1;" vertex="1" parent="1">
          <mxGeometry x="370" y="20" width="160" height="120" as="geometry" />
        </mxCell>
        <mxCell id="RC3zjSmgozNrkf4qFn7A-20" value="- securityFilter" style="text;strokeColor=none;fillColor=none;align=left;verticalAlign=top;spacingLeft=4;spacingRight=4;overflow=hidden;rotatable=0;points=[[0,0.5],[1,0.5]];portConstraint=eastwest;whiteSpace=wrap;html=1;" vertex="1" parent="RC3zjSmgozNrkf4qFn7A-19">
          <mxGeometry y="26" width="160" height="26" as="geometry" />
        </mxCell>
        <mxCell id="RC3zjSmgozNrkf4qFn7A-21" value="" style="line;strokeWidth=1;fillColor=none;align=left;verticalAlign=middle;spacingTop=-1;spacingLeft=3;spacingRight=3;rotatable=0;labelPosition=right;points=[];portConstraint=eastwest;strokeColor=inherit;" vertex="1" parent="RC3zjSmgozNrkf4qFn7A-19">
          <mxGeometry y="52" width="160" height="8" as="geometry" />
        </mxCell>
        <mxCell id="RC3zjSmgozNrkf4qFn7A-22" value="+ securityFilterChain()&lt;div&gt;+ passwordEncoder()&lt;/div&gt;&lt;div&gt;+ authenticationManager()&lt;/div&gt;" style="text;strokeColor=none;fillColor=none;align=left;verticalAlign=top;spacingLeft=4;spacingRight=4;overflow=hidden;rotatable=0;points=[[0,0.5],[1,0.5]];portConstraint=eastwest;whiteSpace=wrap;html=1;" vertex="1" parent="RC3zjSmgozNrkf4qFn7A-19">
          <mxGeometry y="60" width="160" height="60" as="geometry" />
        </mxCell>
        <mxCell id="RC3zjSmgozNrkf4qFn7A-23" value="SecurityFilter" style="swimlane;fontStyle=1;align=center;verticalAlign=top;childLayout=stackLayout;horizontal=1;startSize=26;horizontalStack=0;resizeParent=1;resizeParentMax=0;resizeLast=0;collapsible=1;marginBottom=0;whiteSpace=wrap;html=1;" vertex="1" parent="1">
          <mxGeometry x="80" y="220" width="160" height="110" as="geometry" />
        </mxCell>
        <mxCell id="RC3zjSmgozNrkf4qFn7A-24" value="- autenticacaoService&lt;div&gt;- usuarioRepository&lt;/div&gt;" style="text;strokeColor=none;fillColor=none;align=left;verticalAlign=top;spacingLeft=4;spacingRight=4;overflow=hidden;rotatable=0;points=[[0,0.5],[1,0.5]];portConstraint=eastwest;whiteSpace=wrap;html=1;" vertex="1" parent="RC3zjSmgozNrkf4qFn7A-23">
          <mxGeometry y="26" width="160" height="34" as="geometry" />
        </mxCell>
        <mxCell id="RC3zjSmgozNrkf4qFn7A-25" value="" style="line;strokeWidth=1;fillColor=none;align=left;verticalAlign=middle;spacingTop=-1;spacingLeft=3;spacingRight=3;rotatable=0;labelPosition=right;points=[];portConstraint=eastwest;strokeColor=inherit;" vertex="1" parent="RC3zjSmgozNrkf4qFn7A-23">
          <mxGeometry y="60" width="160" height="8" as="geometry" />
        </mxCell>
        <mxCell id="RC3zjSmgozNrkf4qFn7A-26" value="+ doFilterInternal()&lt;div&gt;+ extraiTokenHeader()&lt;/div&gt;" style="text;strokeColor=none;fillColor=none;align=left;verticalAlign=top;spacingLeft=4;spacingRight=4;overflow=hidden;rotatable=0;points=[[0,0.5],[1,0.5]];portConstraint=eastwest;whiteSpace=wrap;html=1;" vertex="1" parent="RC3zjSmgozNrkf4qFn7A-23">
          <mxGeometry y="68" width="160" height="42" as="geometry" />
        </mxCell>
        <mxCell id="RC3zjSmgozNrkf4qFn7A-31" value="AutenticacaoController" style="swimlane;fontStyle=1;align=center;verticalAlign=top;childLayout=stackLayout;horizontal=1;startSize=26;horizontalStack=0;resizeParent=1;resizeParentMax=0;resizeLast=0;collapsible=1;marginBottom=0;whiteSpace=wrap;html=1;" vertex="1" parent="1">
          <mxGeometry x="50" y="366" width="180" height="104" as="geometry" />
        </mxCell>
        <mxCell id="RC3zjSmgozNrkf4qFn7A-32" value="- authenticationManager&lt;div&gt;- autenticacaoService&lt;/div&gt;" style="text;strokeColor=none;fillColor=none;align=left;verticalAlign=top;spacingLeft=4;spacingRight=4;overflow=hidden;rotatable=0;points=[[0,0.5],[1,0.5]];portConstraint=eastwest;whiteSpace=wrap;html=1;" vertex="1" parent="RC3zjSmgozNrkf4qFn7A-31">
          <mxGeometry y="26" width="180" height="44" as="geometry" />
        </mxCell>
        <mxCell id="RC3zjSmgozNrkf4qFn7A-33" value="" style="line;strokeWidth=1;fillColor=none;align=left;verticalAlign=middle;spacingTop=-1;spacingLeft=3;spacingRight=3;rotatable=0;labelPosition=right;points=[];portConstraint=eastwest;strokeColor=inherit;" vertex="1" parent="RC3zjSmgozNrkf4qFn7A-31">
          <mxGeometry y="70" width="180" height="8" as="geometry" />
        </mxCell>
        <mxCell id="RC3zjSmgozNrkf4qFn7A-34" value="+ auth(AuthDto): String" style="text;strokeColor=none;fillColor=none;align=left;verticalAlign=top;spacingLeft=4;spacingRight=4;overflow=hidden;rotatable=0;points=[[0,0.5],[1,0.5]];portConstraint=eastwest;whiteSpace=wrap;html=1;" vertex="1" parent="RC3zjSmgozNrkf4qFn7A-31">
          <mxGeometry y="78" width="180" height="26" as="geometry" />
        </mxCell>
        <mxCell id="RC3zjSmgozNrkf4qFn7A-35" value="AuthDto" style="swimlane;fontStyle=0;childLayout=stackLayout;horizontal=1;startSize=26;fillColor=none;horizontalStack=0;resizeParent=1;resizeParentMax=0;resizeLast=0;collapsible=1;marginBottom=0;whiteSpace=wrap;html=1;" vertex="1" parent="1">
          <mxGeometry x="70" y="532" width="140" height="78" as="geometry" />
        </mxCell>
        <mxCell id="RC3zjSmgozNrkf4qFn7A-36" value="- login: String" style="text;strokeColor=none;fillColor=none;align=left;verticalAlign=top;spacingLeft=4;spacingRight=4;overflow=hidden;rotatable=0;points=[[0,0.5],[1,0.5]];portConstraint=eastwest;whiteSpace=wrap;html=1;" vertex="1" parent="RC3zjSmgozNrkf4qFn7A-35">
          <mxGeometry y="26" width="140" height="26" as="geometry" />
        </mxCell>
        <mxCell id="RC3zjSmgozNrkf4qFn7A-37" value="- senha: String" style="text;strokeColor=none;fillColor=none;align=left;verticalAlign=top;spacingLeft=4;spacingRight=4;overflow=hidden;rotatable=0;points=[[0,0.5],[1,0.5]];portConstraint=eastwest;whiteSpace=wrap;html=1;" vertex="1" parent="RC3zjSmgozNrkf4qFn7A-35">
          <mxGeometry y="52" width="140" height="26" as="geometry" />
        </mxCell>
        <mxCell id="RC3zjSmgozNrkf4qFn7A-39" value="UsuarioController" style="swimlane;fontStyle=1;align=center;verticalAlign=top;childLayout=stackLayout;horizontal=1;startSize=26;horizontalStack=0;resizeParent=1;resizeParentMax=0;resizeLast=0;collapsible=1;marginBottom=0;whiteSpace=wrap;html=1;" vertex="1" parent="1">
          <mxGeometry x="60" y="650" width="160" height="120" as="geometry" />
        </mxCell>
        <mxCell id="RC3zjSmgozNrkf4qFn7A-40" value="- usuarioService" style="text;strokeColor=none;fillColor=none;align=left;verticalAlign=top;spacingLeft=4;spacingRight=4;overflow=hidden;rotatable=0;points=[[0,0.5],[1,0.5]];portConstraint=eastwest;whiteSpace=wrap;html=1;" vertex="1" parent="RC3zjSmgozNrkf4qFn7A-39">
          <mxGeometry y="26" width="160" height="26" as="geometry" />
        </mxCell>
        <mxCell id="RC3zjSmgozNrkf4qFn7A-41" value="" style="line;strokeWidth=1;fillColor=none;align=left;verticalAlign=middle;spacingTop=-1;spacingLeft=3;spacingRight=3;rotatable=0;labelPosition=right;points=[];portConstraint=eastwest;strokeColor=inherit;" vertex="1" parent="RC3zjSmgozNrkf4qFn7A-39">
          <mxGeometry y="52" width="160" height="8" as="geometry" />
        </mxCell>
        <mxCell id="RC3zjSmgozNrkf4qFn7A-42" value="+ salvar(UsuarioDto)&lt;div&gt;+ getAdmin()&lt;br&gt;+ getUser()&lt;/div&gt;" style="text;strokeColor=none;fillColor=none;align=left;verticalAlign=top;spacingLeft=4;spacingRight=4;overflow=hidden;rotatable=0;points=[[0,0.5],[1,0.5]];portConstraint=eastwest;whiteSpace=wrap;html=1;" vertex="1" parent="RC3zjSmgozNrkf4qFn7A-39">
          <mxGeometry y="60" width="160" height="60" as="geometry" />
        </mxCell>
        <mxCell id="RC3zjSmgozNrkf4qFn7A-43" value="UsuarioDto" style="swimlane;fontStyle=0;childLayout=stackLayout;horizontal=1;startSize=26;fillColor=none;horizontalStack=0;resizeParent=1;resizeParentMax=0;resizeLast=0;collapsible=1;marginBottom=0;whiteSpace=wrap;html=1;" vertex="1" parent="1">
          <mxGeometry x="70" y="830" width="140" height="136" as="geometry" />
        </mxCell>
        <mxCell id="RC3zjSmgozNrkf4qFn7A-44" value="- nome: String" style="text;strokeColor=none;fillColor=none;align=left;verticalAlign=top;spacingLeft=4;spacingRight=4;overflow=hidden;rotatable=0;points=[[0,0.5],[1,0.5]];portConstraint=eastwest;whiteSpace=wrap;html=1;" vertex="1" parent="RC3zjSmgozNrkf4qFn7A-43">
          <mxGeometry y="26" width="140" height="26" as="geometry" />
        </mxCell>
        <mxCell id="RC3zjSmgozNrkf4qFn7A-45" value="- login: String" style="text;strokeColor=none;fillColor=none;align=left;verticalAlign=top;spacingLeft=4;spacingRight=4;overflow=hidden;rotatable=0;points=[[0,0.5],[1,0.5]];portConstraint=eastwest;whiteSpace=wrap;html=1;" vertex="1" parent="RC3zjSmgozNrkf4qFn7A-43">
          <mxGeometry y="52" width="140" height="26" as="geometry" />
        </mxCell>
        <mxCell id="RC3zjSmgozNrkf4qFn7A-46" value="- senha: String" style="text;strokeColor=none;fillColor=none;align=left;verticalAlign=top;spacingLeft=4;spacingRight=4;overflow=hidden;rotatable=0;points=[[0,0.5],[1,0.5]];portConstraint=eastwest;whiteSpace=wrap;html=1;" vertex="1" parent="RC3zjSmgozNrkf4qFn7A-43">
          <mxGeometry y="78" width="140" height="32" as="geometry" />
        </mxCell>
        <mxCell id="RC3zjSmgozNrkf4qFn7A-47" value="- role: RoleEnum" style="text;strokeColor=none;fillColor=none;align=left;verticalAlign=top;spacingLeft=4;spacingRight=4;overflow=hidden;rotatable=0;points=[[0,0.5],[1,0.5]];portConstraint=eastwest;whiteSpace=wrap;html=1;" vertex="1" parent="RC3zjSmgozNrkf4qFn7A-43">
          <mxGeometry y="110" width="140" height="26" as="geometry" />
        </mxCell>
        <mxCell id="RC3zjSmgozNrkf4qFn7A-49" value="" style="endArrow=classic;html=1;rounded=0;exitX=0.485;exitY=1.043;exitDx=0;exitDy=0;exitPerimeter=0;entryX=0.451;entryY=-0.016;entryDx=0;entryDy=0;entryPerimeter=0;" edge="1" parent="1" source="RC3zjSmgozNrkf4qFn7A-22" target="RC3zjSmgozNrkf4qFn7A-15">
          <mxGeometry width="50" height="50" relative="1" as="geometry">
            <mxPoint x="440" y="150" as="sourcePoint" />
            <mxPoint x="450" y="207" as="targetPoint" />
          </mxGeometry>
        </mxCell>
        <mxCell id="RC3zjSmgozNrkf4qFn7A-50" value="" style="endArrow=classic;html=1;rounded=0;exitX=1.003;exitY=0.103;exitDx=0;exitDy=0;exitPerimeter=0;entryX=0;entryY=0.182;entryDx=0;entryDy=0;entryPerimeter=0;" edge="1" parent="1" source="RC3zjSmgozNrkf4qFn7A-23" target="RC3zjSmgozNrkf4qFn7A-15">
          <mxGeometry width="50" height="50" relative="1" as="geometry">
            <mxPoint x="490" y="240" as="sourcePoint" />
            <mxPoint x="540" y="190" as="targetPoint" />
          </mxGeometry>
        </mxCell>
        <mxCell id="RC3zjSmgozNrkf4qFn7A-51" value="" style="endArrow=classic;html=1;rounded=0;entryX=0.519;entryY=0.022;entryDx=0;entryDy=0;exitX=0.466;exitY=1.054;exitDx=0;exitDy=0;exitPerimeter=0;entryPerimeter=0;" edge="1" parent="1" source="RC3zjSmgozNrkf4qFn7A-18" target="RC3zjSmgozNrkf4qFn7A-10">
          <mxGeometry width="50" height="50" relative="1" as="geometry">
            <mxPoint x="490" y="290" as="sourcePoint" />
            <mxPoint x="540" y="240" as="targetPoint" />
          </mxGeometry>
        </mxCell>
        <mxCell id="RC3zjSmgozNrkf4qFn7A-52" value="" style="endArrow=classic;html=1;rounded=0;exitX=0.999;exitY=0.344;exitDx=0;exitDy=0;exitPerimeter=0;entryX=-0.006;entryY=0.099;entryDx=0;entryDy=0;entryPerimeter=0;" edge="1" parent="1" source="RC3zjSmgozNrkf4qFn7A-10" target="RC3zjSmgozNrkf4qFn7A-2">
          <mxGeometry width="50" height="50" relative="1" as="geometry">
            <mxPoint x="550" y="430" as="sourcePoint" />
            <mxPoint x="600" y="380" as="targetPoint" />
          </mxGeometry>
        </mxCell>
        <mxCell id="RC3zjSmgozNrkf4qFn7A-54" value="" style="endArrow=classic;html=1;rounded=0;exitX=0.559;exitY=1.032;exitDx=0;exitDy=0;exitPerimeter=0;entryX=0.56;entryY=-0.014;entryDx=0;entryDy=0;entryPerimeter=0;" edge="1" parent="1" source="RC3zjSmgozNrkf4qFn7A-5" target="RC3zjSmgozNrkf4qFn7A-6">
          <mxGeometry width="50" height="50" relative="1" as="geometry">
            <mxPoint x="550" y="490" as="sourcePoint" />
            <mxPoint x="719" y="640" as="targetPoint" />
          </mxGeometry>
        </mxCell>
        <mxCell id="RC3zjSmgozNrkf4qFn7A-55" value="" style="endArrow=classic;html=1;rounded=0;exitX=0.45;exitY=1.138;exitDx=0;exitDy=0;exitPerimeter=0;entryX=0.435;entryY=-0.038;entryDx=0;entryDy=0;entryPerimeter=0;" edge="1" parent="1" source="RC3zjSmgozNrkf4qFn7A-34" target="RC3zjSmgozNrkf4qFn7A-35">
          <mxGeometry width="50" height="50" relative="1" as="geometry">
            <mxPoint x="340" y="540" as="sourcePoint" />
            <mxPoint x="390" y="490" as="targetPoint" />
          </mxGeometry>
        </mxCell>
        <mxCell id="RC3zjSmgozNrkf4qFn7A-56" value="" style="endArrow=classic;html=1;rounded=0;exitX=0.479;exitY=1.042;exitDx=0;exitDy=0;exitPerimeter=0;entryX=0.47;entryY=-0.012;entryDx=0;entryDy=0;entryPerimeter=0;" edge="1" parent="1" source="RC3zjSmgozNrkf4qFn7A-42" target="RC3zjSmgozNrkf4qFn7A-43">
          <mxGeometry width="50" height="50" relative="1" as="geometry">
            <mxPoint x="340" y="970" as="sourcePoint" />
            <mxPoint x="137" y="820" as="targetPoint" />
          </mxGeometry>
        </mxCell>
        <mxCell id="RC3zjSmgozNrkf4qFn7A-59" value="SecurityConfiguration" style="swimlane;fontStyle=1;align=center;verticalAlign=top;childLayout=stackLayout;horizontal=1;startSize=36.8;horizontalStack=0;resizeParent=1;resizeParentMax=0;resizeLast=0;collapsible=0;marginBottom=0;" vertex="1" parent="1">
          <mxGeometry x="1236" y="990" width="665" height="192.8" as="geometry" />
        </mxCell>
        <mxCell id="RC3zjSmgozNrkf4qFn7A-60" value="+SecurityFilter securityFilter" style="text;strokeColor=none;fillColor=none;align=left;verticalAlign=top;spacingLeft=4;spacingRight=4;overflow=hidden;rotatable=0;points=[[0,0.5],[1,0.5]];portConstraint=eastwest;" vertex="1" parent="RC3zjSmgozNrkf4qFn7A-59">
          <mxGeometry y="36.8" width="665" height="37" as="geometry" />
        </mxCell>
        <mxCell id="RC3zjSmgozNrkf4qFn7A-61" style="line;strokeWidth=1;fillColor=none;align=left;verticalAlign=middle;spacingTop=-1;spacingLeft=3;spacingRight=3;rotatable=0;labelPosition=right;points=[];portConstraint=eastwest;strokeColor=inherit;" vertex="1" parent="RC3zjSmgozNrkf4qFn7A-59">
          <mxGeometry y="73.8" width="665" height="8" as="geometry" />
        </mxCell>
        <mxCell id="RC3zjSmgozNrkf4qFn7A-62" value="+SecurityFilterChain securityFilterChain(HttpSecurity)" style="text;strokeColor=none;fillColor=none;align=left;verticalAlign=top;spacingLeft=4;spacingRight=4;overflow=hidden;rotatable=0;points=[[0,0.5],[1,0.5]];portConstraint=eastwest;" vertex="1" parent="RC3zjSmgozNrkf4qFn7A-59">
          <mxGeometry y="81.8" width="665" height="37" as="geometry" />
        </mxCell>
        <mxCell id="RC3zjSmgozNrkf4qFn7A-63" value="+PasswordEncoder passwordEncoder()" style="text;strokeColor=none;fillColor=none;align=left;verticalAlign=top;spacingLeft=4;spacingRight=4;overflow=hidden;rotatable=0;points=[[0,0.5],[1,0.5]];portConstraint=eastwest;" vertex="1" parent="RC3zjSmgozNrkf4qFn7A-59">
          <mxGeometry y="118.8" width="665" height="37" as="geometry" />
        </mxCell>
        <mxCell id="RC3zjSmgozNrkf4qFn7A-64" value="+AuthenticationManager authenticationManager(AuthenticationConfiguration)" style="text;strokeColor=none;fillColor=none;align=left;verticalAlign=top;spacingLeft=4;spacingRight=4;overflow=hidden;rotatable=0;points=[[0,0.5],[1,0.5]];portConstraint=eastwest;" vertex="1" parent="RC3zjSmgozNrkf4qFn7A-59">
          <mxGeometry y="155.8" width="665" height="37" as="geometry" />
        </mxCell>
        <mxCell id="RC3zjSmgozNrkf4qFn7A-65" value="SecurityFilter" style="swimlane;fontStyle=1;align=center;verticalAlign=top;childLayout=stackLayout;horizontal=1;startSize=36.8;horizontalStack=0;resizeParent=1;resizeParentMax=0;resizeLast=0;collapsible=0;marginBottom=0;" vertex="1" parent="1">
          <mxGeometry x="50" y="1279" width="595" height="192.8" as="geometry" />
        </mxCell>
        <mxCell id="RC3zjSmgozNrkf4qFn7A-66" value="+AutenticacaoService autenticacaoService" style="text;strokeColor=none;fillColor=none;align=left;verticalAlign=top;spacingLeft=4;spacingRight=4;overflow=hidden;rotatable=0;points=[[0,0.5],[1,0.5]];portConstraint=eastwest;" vertex="1" parent="RC3zjSmgozNrkf4qFn7A-65">
          <mxGeometry y="36.8" width="595" height="37" as="geometry" />
        </mxCell>
        <mxCell id="RC3zjSmgozNrkf4qFn7A-67" value="+UsuarioRepository usuarioRepository" style="text;strokeColor=none;fillColor=none;align=left;verticalAlign=top;spacingLeft=4;spacingRight=4;overflow=hidden;rotatable=0;points=[[0,0.5],[1,0.5]];portConstraint=eastwest;" vertex="1" parent="RC3zjSmgozNrkf4qFn7A-65">
          <mxGeometry y="73.8" width="595" height="37" as="geometry" />
        </mxCell>
        <mxCell id="RC3zjSmgozNrkf4qFn7A-68" style="line;strokeWidth=1;fillColor=none;align=left;verticalAlign=middle;spacingTop=-1;spacingLeft=3;spacingRight=3;rotatable=0;labelPosition=right;points=[];portConstraint=eastwest;strokeColor=inherit;" vertex="1" parent="RC3zjSmgozNrkf4qFn7A-65">
          <mxGeometry y="110.8" width="595" height="8" as="geometry" />
        </mxCell>
        <mxCell id="RC3zjSmgozNrkf4qFn7A-69" value="+doFilterInternal(HttpServletRequest, HttpServletResponse, FilterChain)" style="text;strokeColor=none;fillColor=none;align=left;verticalAlign=top;spacingLeft=4;spacingRight=4;overflow=hidden;rotatable=0;points=[[0,0.5],[1,0.5]];portConstraint=eastwest;" vertex="1" parent="RC3zjSmgozNrkf4qFn7A-65">
          <mxGeometry y="118.8" width="595" height="37" as="geometry" />
        </mxCell>
        <mxCell id="RC3zjSmgozNrkf4qFn7A-70" value="+extraiTokenHeader(HttpServletRequest)" style="text;strokeColor=none;fillColor=none;align=left;verticalAlign=top;spacingLeft=4;spacingRight=4;overflow=hidden;rotatable=0;points=[[0,0.5],[1,0.5]];portConstraint=eastwest;" vertex="1" parent="RC3zjSmgozNrkf4qFn7A-65">
          <mxGeometry y="155.8" width="595" height="37" as="geometry" />
        </mxCell>
        <mxCell id="RC3zjSmgozNrkf4qFn7A-71" value="AutenticacaoController" style="swimlane;fontStyle=1;align=center;verticalAlign=top;childLayout=stackLayout;horizontal=1;startSize=40;horizontalStack=0;resizeParent=1;resizeParentMax=0;resizeLast=0;collapsible=0;marginBottom=0;" vertex="1" parent="1">
          <mxGeometry x="1130" y="1291" width="455" height="168" as="geometry" />
        </mxCell>
        <mxCell id="RC3zjSmgozNrkf4qFn7A-72" value="+AuthenticationManager authenticationManager" style="text;strokeColor=none;fillColor=none;align=left;verticalAlign=top;spacingLeft=4;spacingRight=4;overflow=hidden;rotatable=0;points=[[0,0.5],[1,0.5]];portConstraint=eastwest;" vertex="1" parent="RC3zjSmgozNrkf4qFn7A-71">
          <mxGeometry y="40" width="455" height="40" as="geometry" />
        </mxCell>
        <mxCell id="RC3zjSmgozNrkf4qFn7A-73" value="+AutenticacaoService autenticacaoService" style="text;strokeColor=none;fillColor=none;align=left;verticalAlign=top;spacingLeft=4;spacingRight=4;overflow=hidden;rotatable=0;points=[[0,0.5],[1,0.5]];portConstraint=eastwest;" vertex="1" parent="RC3zjSmgozNrkf4qFn7A-71">
          <mxGeometry y="80" width="455" height="40" as="geometry" />
        </mxCell>
        <mxCell id="RC3zjSmgozNrkf4qFn7A-74" style="line;strokeWidth=1;fillColor=none;align=left;verticalAlign=middle;spacingTop=-1;spacingLeft=3;spacingRight=3;rotatable=0;labelPosition=right;points=[];portConstraint=eastwest;strokeColor=inherit;" vertex="1" parent="RC3zjSmgozNrkf4qFn7A-71">
          <mxGeometry y="120" width="455" height="8" as="geometry" />
        </mxCell>
        <mxCell id="RC3zjSmgozNrkf4qFn7A-75" value="+auth(AuthDto authDto)" style="text;strokeColor=none;fillColor=none;align=left;verticalAlign=top;spacingLeft=4;spacingRight=4;overflow=hidden;rotatable=0;points=[[0,0.5],[1,0.5]];portConstraint=eastwest;" vertex="1" parent="RC3zjSmgozNrkf4qFn7A-71">
          <mxGeometry y="128" width="455" height="40" as="geometry" />
        </mxCell>
        <mxCell id="RC3zjSmgozNrkf4qFn7A-76" value="UsuarioController" style="swimlane;fontStyle=1;align=center;verticalAlign=top;childLayout=stackLayout;horizontal=1;startSize=36.8;horizontalStack=0;resizeParent=1;resizeParentMax=0;resizeLast=0;collapsible=0;marginBottom=0;" vertex="1" parent="1">
          <mxGeometry x="1636" y="1279" width="312" height="192.8" as="geometry" />
        </mxCell>
        <mxCell id="RC3zjSmgozNrkf4qFn7A-77" value="+UsuarioService usuarioService" style="text;strokeColor=none;fillColor=none;align=left;verticalAlign=top;spacingLeft=4;spacingRight=4;overflow=hidden;rotatable=0;points=[[0,0.5],[1,0.5]];portConstraint=eastwest;" vertex="1" parent="RC3zjSmgozNrkf4qFn7A-76">
          <mxGeometry y="36.8" width="312" height="37" as="geometry" />
        </mxCell>
        <mxCell id="RC3zjSmgozNrkf4qFn7A-78" style="line;strokeWidth=1;fillColor=none;align=left;verticalAlign=middle;spacingTop=-1;spacingLeft=3;spacingRight=3;rotatable=0;labelPosition=right;points=[];portConstraint=eastwest;strokeColor=inherit;" vertex="1" parent="RC3zjSmgozNrkf4qFn7A-76">
          <mxGeometry y="73.8" width="312" height="8" as="geometry" />
        </mxCell>
        <mxCell id="RC3zjSmgozNrkf4qFn7A-79" value="+salvar(UsuarioDto usuarioDto)" style="text;strokeColor=none;fillColor=none;align=left;verticalAlign=top;spacingLeft=4;spacingRight=4;overflow=hidden;rotatable=0;points=[[0,0.5],[1,0.5]];portConstraint=eastwest;" vertex="1" parent="RC3zjSmgozNrkf4qFn7A-76">
          <mxGeometry y="81.8" width="312" height="37" as="geometry" />
        </mxCell>
        <mxCell id="RC3zjSmgozNrkf4qFn7A-80" value="+getAdmin()" style="text;strokeColor=none;fillColor=none;align=left;verticalAlign=top;spacingLeft=4;spacingRight=4;overflow=hidden;rotatable=0;points=[[0,0.5],[1,0.5]];portConstraint=eastwest;" vertex="1" parent="RC3zjSmgozNrkf4qFn7A-76">
          <mxGeometry y="118.8" width="312" height="37" as="geometry" />
        </mxCell>
        <mxCell id="RC3zjSmgozNrkf4qFn7A-81" value="+getUser()" style="text;strokeColor=none;fillColor=none;align=left;verticalAlign=top;spacingLeft=4;spacingRight=4;overflow=hidden;rotatable=0;points=[[0,0.5],[1,0.5]];portConstraint=eastwest;" vertex="1" parent="RC3zjSmgozNrkf4qFn7A-76">
          <mxGeometry y="155.8" width="312" height="37" as="geometry" />
        </mxCell>
        <mxCell id="RC3zjSmgozNrkf4qFn7A-82" value="AuthDto" style="swimlane;fontStyle=1;align=center;verticalAlign=top;childLayout=stackLayout;horizontal=1;startSize=38.857142857142854;horizontalStack=0;resizeParent=1;resizeParentMax=0;resizeLast=0;collapsible=0;marginBottom=0;" vertex="1" parent="1">
          <mxGeometry x="2783" y="1014" width="150" height="135.85714285714286" as="geometry" />
        </mxCell>
        <mxCell id="RC3zjSmgozNrkf4qFn7A-83" value="+String login" style="text;strokeColor=none;fillColor=none;align=left;verticalAlign=top;spacingLeft=4;spacingRight=4;overflow=hidden;rotatable=0;points=[[0,0.5],[1,0.5]];portConstraint=eastwest;" vertex="1" parent="RC3zjSmgozNrkf4qFn7A-82">
          <mxGeometry y="38.857142857142854" width="150" height="39" as="geometry" />
        </mxCell>
        <mxCell id="RC3zjSmgozNrkf4qFn7A-84" value="+String senha" style="text;strokeColor=none;fillColor=none;align=left;verticalAlign=top;spacingLeft=4;spacingRight=4;overflow=hidden;rotatable=0;points=[[0,0.5],[1,0.5]];portConstraint=eastwest;" vertex="1" parent="RC3zjSmgozNrkf4qFn7A-82">
          <mxGeometry y="77.85714285714286" width="150" height="39" as="geometry" />
        </mxCell>
        <mxCell id="RC3zjSmgozNrkf4qFn7A-85" style="line;strokeWidth=1;fillColor=none;align=left;verticalAlign=middle;spacingTop=-1;spacingLeft=3;spacingRight=3;rotatable=0;labelPosition=right;points=[];portConstraint=eastwest;strokeColor=inherit;" vertex="1" parent="RC3zjSmgozNrkf4qFn7A-82">
          <mxGeometry y="116.85714285714286" width="150" height="19" as="geometry" />
        </mxCell>
        <mxCell id="RC3zjSmgozNrkf4qFn7A-86" value="UsuarioDto" style="swimlane;fontStyle=1;align=center;verticalAlign=top;childLayout=stackLayout;horizontal=1;startSize=33.45454545454545;horizontalStack=0;resizeParent=1;resizeParentMax=0;resizeLast=0;collapsible=0;marginBottom=0;" vertex="1" parent="1">
          <mxGeometry x="479" y="1910" width="177" height="182.45454545454544" as="geometry" />
        </mxCell>
        <mxCell id="RC3zjSmgozNrkf4qFn7A-87" value="+String nome" style="text;strokeColor=none;fillColor=none;align=left;verticalAlign=top;spacingLeft=4;spacingRight=4;overflow=hidden;rotatable=0;points=[[0,0.5],[1,0.5]];portConstraint=eastwest;" vertex="1" parent="RC3zjSmgozNrkf4qFn7A-86">
          <mxGeometry y="33.45454545454545" width="177" height="33" as="geometry" />
        </mxCell>
        <mxCell id="RC3zjSmgozNrkf4qFn7A-88" value="+String login" style="text;strokeColor=none;fillColor=none;align=left;verticalAlign=top;spacingLeft=4;spacingRight=4;overflow=hidden;rotatable=0;points=[[0,0.5],[1,0.5]];portConstraint=eastwest;" vertex="1" parent="RC3zjSmgozNrkf4qFn7A-86">
          <mxGeometry y="66.45454545454545" width="177" height="33" as="geometry" />
        </mxCell>
        <mxCell id="RC3zjSmgozNrkf4qFn7A-89" value="+String senha" style="text;strokeColor=none;fillColor=none;align=left;verticalAlign=top;spacingLeft=4;spacingRight=4;overflow=hidden;rotatable=0;points=[[0,0.5],[1,0.5]];portConstraint=eastwest;" vertex="1" parent="RC3zjSmgozNrkf4qFn7A-86">
          <mxGeometry y="99.45454545454545" width="177" height="33" as="geometry" />
        </mxCell>
        <mxCell id="RC3zjSmgozNrkf4qFn7A-90" value="+RoleEnum role" style="text;strokeColor=none;fillColor=none;align=left;verticalAlign=top;spacingLeft=4;spacingRight=4;overflow=hidden;rotatable=0;points=[[0,0.5],[1,0.5]];portConstraint=eastwest;" vertex="1" parent="RC3zjSmgozNrkf4qFn7A-86">
          <mxGeometry y="132.45454545454544" width="177" height="33" as="geometry" />
        </mxCell>
        <mxCell id="RC3zjSmgozNrkf4qFn7A-91" style="line;strokeWidth=1;fillColor=none;align=left;verticalAlign=middle;spacingTop=-1;spacingLeft=3;spacingRight=3;rotatable=0;labelPosition=right;points=[];portConstraint=eastwest;strokeColor=inherit;" vertex="1" parent="RC3zjSmgozNrkf4qFn7A-86">
          <mxGeometry y="165.45454545454544" width="177" height="17" as="geometry" />
        </mxCell>
        <mxCell id="RC3zjSmgozNrkf4qFn7A-92" value="RoleEnum" style="swimlane;fontStyle=1;align=center;verticalAlign=top;childLayout=stackLayout;horizontal=1;startSize=40;horizontalStack=0;resizeParent=1;resizeParentMax=0;resizeLast=0;collapsible=0;marginBottom=0;" vertex="1" parent="1">
          <mxGeometry x="477" y="2271" width="181" height="168" as="geometry" />
        </mxCell>
        <mxCell id="RC3zjSmgozNrkf4qFn7A-93" value="+String role" style="text;strokeColor=none;fillColor=none;align=left;verticalAlign=top;spacingLeft=4;spacingRight=4;overflow=hidden;rotatable=0;points=[[0,0.5],[1,0.5]];portConstraint=eastwest;" vertex="1" parent="RC3zjSmgozNrkf4qFn7A-92">
          <mxGeometry y="40" width="181" height="40" as="geometry" />
        </mxCell>
        <mxCell id="RC3zjSmgozNrkf4qFn7A-94" style="line;strokeWidth=1;fillColor=none;align=left;verticalAlign=middle;spacingTop=-1;spacingLeft=3;spacingRight=3;rotatable=0;labelPosition=right;points=[];portConstraint=eastwest;strokeColor=inherit;" vertex="1" parent="RC3zjSmgozNrkf4qFn7A-92">
          <mxGeometry y="80" width="181" height="8" as="geometry" />
        </mxCell>
        <mxCell id="RC3zjSmgozNrkf4qFn7A-95" value="+ADMIN(&quot;admin&quot;)" style="text;strokeColor=none;fillColor=none;align=left;verticalAlign=top;spacingLeft=4;spacingRight=4;overflow=hidden;rotatable=0;points=[[0,0.5],[1,0.5]];portConstraint=eastwest;" vertex="1" parent="RC3zjSmgozNrkf4qFn7A-92">
          <mxGeometry y="88" width="181" height="40" as="geometry" />
        </mxCell>
        <mxCell id="RC3zjSmgozNrkf4qFn7A-96" value="+USER(&quot;user&quot;)" style="text;strokeColor=none;fillColor=none;align=left;verticalAlign=top;spacingLeft=4;spacingRight=4;overflow=hidden;rotatable=0;points=[[0,0.5],[1,0.5]];portConstraint=eastwest;" vertex="1" parent="RC3zjSmgozNrkf4qFn7A-92">
          <mxGeometry y="128" width="181" height="40" as="geometry" />
        </mxCell>
        <mxCell id="RC3zjSmgozNrkf4qFn7A-97" value="Usuario" style="swimlane;fontStyle=1;align=center;verticalAlign=top;childLayout=stackLayout;horizontal=1;startSize=28.923076923076923;horizontalStack=0;resizeParent=1;resizeParentMax=0;resizeLast=0;collapsible=0;marginBottom=0;" vertex="1" parent="1">
          <mxGeometry x="706" y="1814" width="308" height="384.9230769230769" as="geometry" />
        </mxCell>
        <mxCell id="RC3zjSmgozNrkf4qFn7A-98" value="+Long id" style="text;strokeColor=none;fillColor=none;align=left;verticalAlign=top;spacingLeft=4;spacingRight=4;overflow=hidden;rotatable=0;points=[[0,0.5],[1,0.5]];portConstraint=eastwest;" vertex="1" parent="RC3zjSmgozNrkf4qFn7A-97">
          <mxGeometry y="28.923076923076923" width="308" height="29" as="geometry" />
        </mxCell>
        <mxCell id="RC3zjSmgozNrkf4qFn7A-99" value="+String nome" style="text;strokeColor=none;fillColor=none;align=left;verticalAlign=top;spacingLeft=4;spacingRight=4;overflow=hidden;rotatable=0;points=[[0,0.5],[1,0.5]];portConstraint=eastwest;" vertex="1" parent="RC3zjSmgozNrkf4qFn7A-97">
          <mxGeometry y="57.92307692307692" width="308" height="29" as="geometry" />
        </mxCell>
        <mxCell id="RC3zjSmgozNrkf4qFn7A-100" value="+String login" style="text;strokeColor=none;fillColor=none;align=left;verticalAlign=top;spacingLeft=4;spacingRight=4;overflow=hidden;rotatable=0;points=[[0,0.5],[1,0.5]];portConstraint=eastwest;" vertex="1" parent="RC3zjSmgozNrkf4qFn7A-97">
          <mxGeometry y="86.92307692307692" width="308" height="29" as="geometry" />
        </mxCell>
        <mxCell id="RC3zjSmgozNrkf4qFn7A-101" value="+String senha" style="text;strokeColor=none;fillColor=none;align=left;verticalAlign=top;spacingLeft=4;spacingRight=4;overflow=hidden;rotatable=0;points=[[0,0.5],[1,0.5]];portConstraint=eastwest;" vertex="1" parent="RC3zjSmgozNrkf4qFn7A-97">
          <mxGeometry y="115.92307692307692" width="308" height="29" as="geometry" />
        </mxCell>
        <mxCell id="RC3zjSmgozNrkf4qFn7A-102" value="+RoleEnum role" style="text;strokeColor=none;fillColor=none;align=left;verticalAlign=top;spacingLeft=4;spacingRight=4;overflow=hidden;rotatable=0;points=[[0,0.5],[1,0.5]];portConstraint=eastwest;" vertex="1" parent="RC3zjSmgozNrkf4qFn7A-97">
          <mxGeometry y="144.9230769230769" width="308" height="29" as="geometry" />
        </mxCell>
        <mxCell id="RC3zjSmgozNrkf4qFn7A-103" style="line;strokeWidth=1;fillColor=none;align=left;verticalAlign=middle;spacingTop=-1;spacingLeft=3;spacingRight=3;rotatable=0;labelPosition=right;points=[];portConstraint=eastwest;strokeColor=inherit;" vertex="1" parent="RC3zjSmgozNrkf4qFn7A-97">
          <mxGeometry y="173.9230769230769" width="308" height="8" as="geometry" />
        </mxCell>
        <mxCell id="RC3zjSmgozNrkf4qFn7A-104" value="+Collection getAuthorities()" style="text;strokeColor=none;fillColor=none;align=left;verticalAlign=top;spacingLeft=4;spacingRight=4;overflow=hidden;rotatable=0;points=[[0,0.5],[1,0.5]];portConstraint=eastwest;" vertex="1" parent="RC3zjSmgozNrkf4qFn7A-97">
          <mxGeometry y="181.9230769230769" width="308" height="29" as="geometry" />
        </mxCell>
        <mxCell id="RC3zjSmgozNrkf4qFn7A-105" value="+String getPassword()" style="text;strokeColor=none;fillColor=none;align=left;verticalAlign=top;spacingLeft=4;spacingRight=4;overflow=hidden;rotatable=0;points=[[0,0.5],[1,0.5]];portConstraint=eastwest;" vertex="1" parent="RC3zjSmgozNrkf4qFn7A-97">
          <mxGeometry y="210.9230769230769" width="308" height="29" as="geometry" />
        </mxCell>
        <mxCell id="RC3zjSmgozNrkf4qFn7A-106" value="+String getUsername()" style="text;strokeColor=none;fillColor=none;align=left;verticalAlign=top;spacingLeft=4;spacingRight=4;overflow=hidden;rotatable=0;points=[[0,0.5],[1,0.5]];portConstraint=eastwest;" vertex="1" parent="RC3zjSmgozNrkf4qFn7A-97">
          <mxGeometry y="239.9230769230769" width="308" height="29" as="geometry" />
        </mxCell>
        <mxCell id="RC3zjSmgozNrkf4qFn7A-107" value="+boolean isAccountNonExpired()" style="text;strokeColor=none;fillColor=none;align=left;verticalAlign=top;spacingLeft=4;spacingRight=4;overflow=hidden;rotatable=0;points=[[0,0.5],[1,0.5]];portConstraint=eastwest;" vertex="1" parent="RC3zjSmgozNrkf4qFn7A-97">
          <mxGeometry y="268.9230769230769" width="308" height="29" as="geometry" />
        </mxCell>
        <mxCell id="RC3zjSmgozNrkf4qFn7A-108" value="+boolean isAccountNonLocked()" style="text;strokeColor=none;fillColor=none;align=left;verticalAlign=top;spacingLeft=4;spacingRight=4;overflow=hidden;rotatable=0;points=[[0,0.5],[1,0.5]];portConstraint=eastwest;" vertex="1" parent="RC3zjSmgozNrkf4qFn7A-97">
          <mxGeometry y="297.9230769230769" width="308" height="29" as="geometry" />
        </mxCell>
        <mxCell id="RC3zjSmgozNrkf4qFn7A-109" value="+boolean isCredentialsNonExpired()" style="text;strokeColor=none;fillColor=none;align=left;verticalAlign=top;spacingLeft=4;spacingRight=4;overflow=hidden;rotatable=0;points=[[0,0.5],[1,0.5]];portConstraint=eastwest;" vertex="1" parent="RC3zjSmgozNrkf4qFn7A-97">
          <mxGeometry y="326.9230769230769" width="308" height="29" as="geometry" />
        </mxCell>
        <mxCell id="RC3zjSmgozNrkf4qFn7A-110" value="+boolean isEnabled()" style="text;strokeColor=none;fillColor=none;align=left;verticalAlign=top;spacingLeft=4;spacingRight=4;overflow=hidden;rotatable=0;points=[[0,0.5],[1,0.5]];portConstraint=eastwest;" vertex="1" parent="RC3zjSmgozNrkf4qFn7A-97">
          <mxGeometry y="355.9230769230769" width="308" height="29" as="geometry" />
        </mxCell>
        <mxCell id="RC3zjSmgozNrkf4qFn7A-111" value="UsuarioRepository" style="swimlane;fontStyle=1;align=center;verticalAlign=top;childLayout=stackLayout;horizontal=1;startSize=47.2;horizontalStack=0;resizeParent=1;resizeParentMax=0;resizeLast=0;collapsible=0;marginBottom=0;" vertex="1" parent="1">
          <mxGeometry x="692" y="1591" width="335" height="102.2" as="geometry" />
        </mxCell>
        <mxCell id="RC3zjSmgozNrkf4qFn7A-112" style="line;strokeWidth=1;fillColor=none;align=left;verticalAlign=middle;spacingTop=-1;spacingLeft=3;spacingRight=3;rotatable=0;labelPosition=right;points=[];portConstraint=eastwest;strokeColor=inherit;" vertex="1" parent="RC3zjSmgozNrkf4qFn7A-111">
          <mxGeometry y="47.2" width="335" height="8" as="geometry" />
        </mxCell>
        <mxCell id="RC3zjSmgozNrkf4qFn7A-113" value="+Usuario findByLogin(String login)" style="text;strokeColor=none;fillColor=none;align=left;verticalAlign=top;spacingLeft=4;spacingRight=4;overflow=hidden;rotatable=0;points=[[0,0.5],[1,0.5]];portConstraint=eastwest;" vertex="1" parent="RC3zjSmgozNrkf4qFn7A-111">
          <mxGeometry y="55.2" width="335" height="47" as="geometry" />
        </mxCell>
        <mxCell id="RC3zjSmgozNrkf4qFn7A-114" value="AutenticacaoServiceImpl" style="swimlane;fontStyle=1;align=center;verticalAlign=top;childLayout=stackLayout;horizontal=1;startSize=33.142857142857146;horizontalStack=0;resizeParent=1;resizeParentMax=0;resizeLast=0;collapsible=0;marginBottom=0;" vertex="1" parent="1">
          <mxGeometry x="695" y="1255" width="385" height="239.14285714285714" as="geometry" />
        </mxCell>
        <mxCell id="RC3zjSmgozNrkf4qFn7A-115" value="+UsuarioRepository usuarioRepository" style="text;strokeColor=none;fillColor=none;align=left;verticalAlign=top;spacingLeft=4;spacingRight=4;overflow=hidden;rotatable=0;points=[[0,0.5],[1,0.5]];portConstraint=eastwest;" vertex="1" parent="RC3zjSmgozNrkf4qFn7A-114">
          <mxGeometry y="33.142857142857146" width="385" height="33" as="geometry" />
        </mxCell>
        <mxCell id="RC3zjSmgozNrkf4qFn7A-116" style="line;strokeWidth=1;fillColor=none;align=left;verticalAlign=middle;spacingTop=-1;spacingLeft=3;spacingRight=3;rotatable=0;labelPosition=right;points=[];portConstraint=eastwest;strokeColor=inherit;" vertex="1" parent="RC3zjSmgozNrkf4qFn7A-114">
          <mxGeometry y="66.14285714285714" width="385" height="8" as="geometry" />
        </mxCell>
        <mxCell id="RC3zjSmgozNrkf4qFn7A-117" value="+loadUserByUsername(String login)" style="text;strokeColor=none;fillColor=none;align=left;verticalAlign=top;spacingLeft=4;spacingRight=4;overflow=hidden;rotatable=0;points=[[0,0.5],[1,0.5]];portConstraint=eastwest;" vertex="1" parent="RC3zjSmgozNrkf4qFn7A-114">
          <mxGeometry y="74.14285714285714" width="385" height="33" as="geometry" />
        </mxCell>
        <mxCell id="RC3zjSmgozNrkf4qFn7A-118" value="+obterToken(AuthDto authDto)" style="text;strokeColor=none;fillColor=none;align=left;verticalAlign=top;spacingLeft=4;spacingRight=4;overflow=hidden;rotatable=0;points=[[0,0.5],[1,0.5]];portConstraint=eastwest;" vertex="1" parent="RC3zjSmgozNrkf4qFn7A-114">
          <mxGeometry y="107.14285714285714" width="385" height="33" as="geometry" />
        </mxCell>
        <mxCell id="RC3zjSmgozNrkf4qFn7A-119" value="+gerarTokenJwt(Usuario usuario)" style="text;strokeColor=none;fillColor=none;align=left;verticalAlign=top;spacingLeft=4;spacingRight=4;overflow=hidden;rotatable=0;points=[[0,0.5],[1,0.5]];portConstraint=eastwest;" vertex="1" parent="RC3zjSmgozNrkf4qFn7A-114">
          <mxGeometry y="140.14285714285714" width="385" height="33" as="geometry" />
        </mxCell>
        <mxCell id="RC3zjSmgozNrkf4qFn7A-120" value="+validaTokenJwt(String token)" style="text;strokeColor=none;fillColor=none;align=left;verticalAlign=top;spacingLeft=4;spacingRight=4;overflow=hidden;rotatable=0;points=[[0,0.5],[1,0.5]];portConstraint=eastwest;" vertex="1" parent="RC3zjSmgozNrkf4qFn7A-114">
          <mxGeometry y="173.14285714285714" width="385" height="33" as="geometry" />
        </mxCell>
        <mxCell id="RC3zjSmgozNrkf4qFn7A-121" value="+gerarDataExpiracao()" style="text;strokeColor=none;fillColor=none;align=left;verticalAlign=top;spacingLeft=4;spacingRight=4;overflow=hidden;rotatable=0;points=[[0,0.5],[1,0.5]];portConstraint=eastwest;" vertex="1" parent="RC3zjSmgozNrkf4qFn7A-114">
          <mxGeometry y="206.14285714285714" width="385" height="33" as="geometry" />
        </mxCell>
        <mxCell id="RC3zjSmgozNrkf4qFn7A-122" value="UsuarioServiceImpl" style="swimlane;fontStyle=1;align=center;verticalAlign=top;childLayout=stackLayout;horizontal=1;startSize=40;horizontalStack=0;resizeParent=1;resizeParentMax=0;resizeLast=0;collapsible=0;marginBottom=0;" vertex="1" parent="1">
          <mxGeometry x="1998" y="1291" width="364" height="168" as="geometry" />
        </mxCell>
        <mxCell id="RC3zjSmgozNrkf4qFn7A-123" value="+UsuarioRepository usuarioRepository" style="text;strokeColor=none;fillColor=none;align=left;verticalAlign=top;spacingLeft=4;spacingRight=4;overflow=hidden;rotatable=0;points=[[0,0.5],[1,0.5]];portConstraint=eastwest;" vertex="1" parent="RC3zjSmgozNrkf4qFn7A-122">
          <mxGeometry y="40" width="364" height="40" as="geometry" />
        </mxCell>
        <mxCell id="RC3zjSmgozNrkf4qFn7A-124" value="+PasswordEncoder passwordEncoder" style="text;strokeColor=none;fillColor=none;align=left;verticalAlign=top;spacingLeft=4;spacingRight=4;overflow=hidden;rotatable=0;points=[[0,0.5],[1,0.5]];portConstraint=eastwest;" vertex="1" parent="RC3zjSmgozNrkf4qFn7A-122">
          <mxGeometry y="80" width="364" height="40" as="geometry" />
        </mxCell>
        <mxCell id="RC3zjSmgozNrkf4qFn7A-125" style="line;strokeWidth=1;fillColor=none;align=left;verticalAlign=middle;spacingTop=-1;spacingLeft=3;spacingRight=3;rotatable=0;labelPosition=right;points=[];portConstraint=eastwest;strokeColor=inherit;" vertex="1" parent="RC3zjSmgozNrkf4qFn7A-122">
          <mxGeometry y="120" width="364" height="8" as="geometry" />
        </mxCell>
        <mxCell id="RC3zjSmgozNrkf4qFn7A-126" value="+salvar(UsuarioDto usuarioDto)" style="text;strokeColor=none;fillColor=none;align=left;verticalAlign=top;spacingLeft=4;spacingRight=4;overflow=hidden;rotatable=0;points=[[0,0.5],[1,0.5]];portConstraint=eastwest;" vertex="1" parent="RC3zjSmgozNrkf4qFn7A-122">
          <mxGeometry y="128" width="364" height="40" as="geometry" />
        </mxCell>
        <mxCell id="RC3zjSmgozNrkf4qFn7A-127" value="&lt;&lt;interface&gt;&gt;&#xa;AutenticacaoService" style="swimlane;fontStyle=1;align=center;verticalAlign=top;childLayout=stackLayout;horizontal=1;startSize=62.25;horizontalStack=0;resizeParent=1;resizeParentMax=0;resizeLast=0;collapsible=0;marginBottom=0;" vertex="1" parent="1">
          <mxGeometry x="1439" y="1567" width="367" height="154.25" as="geometry" />
        </mxCell>
        <mxCell id="RC3zjSmgozNrkf4qFn7A-128" style="line;strokeWidth=1;fillColor=none;align=left;verticalAlign=middle;spacingTop=-1;spacingLeft=3;spacingRight=3;rotatable=0;labelPosition=right;points=[];portConstraint=eastwest;strokeColor=inherit;" vertex="1" parent="RC3zjSmgozNrkf4qFn7A-127">
          <mxGeometry y="62.25" width="367" height="8" as="geometry" />
        </mxCell>
        <mxCell id="RC3zjSmgozNrkf4qFn7A-129" value="+String obterToken(AuthDto authDto)" style="text;strokeColor=none;fillColor=none;align=left;verticalAlign=top;spacingLeft=4;spacingRight=4;overflow=hidden;rotatable=0;points=[[0,0.5],[1,0.5]];portConstraint=eastwest;" vertex="1" parent="RC3zjSmgozNrkf4qFn7A-127">
          <mxGeometry y="70.25" width="367" height="42" as="geometry" />
        </mxCell>
        <mxCell id="RC3zjSmgozNrkf4qFn7A-130" value="+String validaTokenJwt(String token)" style="text;strokeColor=none;fillColor=none;align=left;verticalAlign=top;spacingLeft=4;spacingRight=4;overflow=hidden;rotatable=0;points=[[0,0.5],[1,0.5]];portConstraint=eastwest;" vertex="1" parent="RC3zjSmgozNrkf4qFn7A-127">
          <mxGeometry y="112.25" width="367" height="42" as="geometry" />
        </mxCell>
        <mxCell id="RC3zjSmgozNrkf4qFn7A-131" value="&lt;&lt;interface&gt;&gt;&#xa;UsuarioService" style="swimlane;fontStyle=1;align=center;verticalAlign=top;childLayout=stackLayout;horizontal=1;startSize=71;horizontalStack=0;resizeParent=1;resizeParentMax=0;resizeLast=0;collapsible=0;marginBottom=0;" vertex="1" parent="1">
          <mxGeometry x="1940" y="1579" width="384" height="126" as="geometry" />
        </mxCell>
        <mxCell id="RC3zjSmgozNrkf4qFn7A-132" style="line;strokeWidth=1;fillColor=none;align=left;verticalAlign=middle;spacingTop=-1;spacingLeft=3;spacingRight=3;rotatable=0;labelPosition=right;points=[];portConstraint=eastwest;strokeColor=inherit;" vertex="1" parent="RC3zjSmgozNrkf4qFn7A-131">
          <mxGeometry y="71" width="384" height="8" as="geometry" />
        </mxCell>
        <mxCell id="RC3zjSmgozNrkf4qFn7A-133" value="+UsuarioDto salvar(UsuarioDto usuarioDto)" style="text;strokeColor=none;fillColor=none;align=left;verticalAlign=top;spacingLeft=4;spacingRight=4;overflow=hidden;rotatable=0;points=[[0,0.5],[1,0.5]];portConstraint=eastwest;" vertex="1" parent="RC3zjSmgozNrkf4qFn7A-131">
          <mxGeometry y="79" width="384" height="47" as="geometry" />
        </mxCell>
        <mxCell id="RC3zjSmgozNrkf4qFn7A-134" value="AuthApplication" style="swimlane;fontStyle=1;align=center;verticalAlign=top;childLayout=stackLayout;horizontal=1;startSize=47.2;horizontalStack=0;resizeParent=1;resizeParentMax=0;resizeLast=0;collapsible=0;marginBottom=0;" vertex="1" parent="1">
          <mxGeometry x="2983" y="1023" width="226" height="102.2" as="geometry" />
        </mxCell>
        <mxCell id="RC3zjSmgozNrkf4qFn7A-135" style="line;strokeWidth=1;fillColor=none;align=left;verticalAlign=middle;spacingTop=-1;spacingLeft=3;spacingRight=3;rotatable=0;labelPosition=right;points=[];portConstraint=eastwest;strokeColor=inherit;" vertex="1" parent="RC3zjSmgozNrkf4qFn7A-134">
          <mxGeometry y="47.2" width="226" height="8" as="geometry" />
        </mxCell>
        <mxCell id="RC3zjSmgozNrkf4qFn7A-136" value="+main(String[] args)" style="text;strokeColor=none;fillColor=none;align=left;verticalAlign=top;spacingLeft=4;spacingRight=4;overflow=hidden;rotatable=0;points=[[0,0.5],[1,0.5]];portConstraint=eastwest;" vertex="1" parent="RC3zjSmgozNrkf4qFn7A-134">
          <mxGeometry y="55.2" width="226" height="47" as="geometry" />
        </mxCell>
        <mxCell id="RC3zjSmgozNrkf4qFn7A-137" value="SecurityFilterChain" style="swimlane;fontStyle=1;align=center;verticalAlign=top;childLayout=stackLayout;horizontal=1;startSize=38;horizontalStack=0;resizeParent=1;resizeParentMax=0;resizeLast=0;collapsible=0;marginBottom=0;" vertex="1" parent="1">
          <mxGeometry x="2412" y="1333" width="169" height="57" as="geometry" />
        </mxCell>
        <mxCell id="RC3zjSmgozNrkf4qFn7A-138" style="line;strokeWidth=1;fillColor=none;align=left;verticalAlign=middle;spacingTop=-1;spacingLeft=3;spacingRight=3;rotatable=0;labelPosition=right;points=[];portConstraint=eastwest;strokeColor=inherit;" vertex="1" parent="RC3zjSmgozNrkf4qFn7A-137">
          <mxGeometry y="38" width="169" height="19" as="geometry" />
        </mxCell>
        <mxCell id="RC3zjSmgozNrkf4qFn7A-139" value="AuthenticationManager" style="swimlane;fontStyle=1;align=center;verticalAlign=top;childLayout=stackLayout;horizontal=1;startSize=38;horizontalStack=0;resizeParent=1;resizeParentMax=0;resizeLast=0;collapsible=0;marginBottom=0;" vertex="1" parent="1">
          <mxGeometry x="2438" y="1612" width="198" height="57" as="geometry" />
        </mxCell>
        <mxCell id="RC3zjSmgozNrkf4qFn7A-140" style="line;strokeWidth=1;fillColor=none;align=left;verticalAlign=middle;spacingTop=-1;spacingLeft=3;spacingRight=3;rotatable=0;labelPosition=right;points=[];portConstraint=eastwest;strokeColor=inherit;" vertex="1" parent="RC3zjSmgozNrkf4qFn7A-139">
          <mxGeometry y="38" width="198" height="19" as="geometry" />
        </mxCell>
        <mxCell id="RC3zjSmgozNrkf4qFn7A-141" value="GrantedAuthority" style="swimlane;fontStyle=1;align=center;verticalAlign=top;childLayout=stackLayout;horizontal=1;startSize=38;horizontalStack=0;resizeParent=1;resizeParentMax=0;resizeLast=0;collapsible=0;marginBottom=0;" vertex="1" parent="1">
          <mxGeometry x="860" y="2313" width="155" height="57" as="geometry" />
        </mxCell>
        <mxCell id="RC3zjSmgozNrkf4qFn7A-142" style="line;strokeWidth=1;fillColor=none;align=left;verticalAlign=middle;spacingTop=-1;spacingLeft=3;spacingRight=3;rotatable=0;labelPosition=right;points=[];portConstraint=eastwest;strokeColor=inherit;" vertex="1" parent="RC3zjSmgozNrkf4qFn7A-141">
          <mxGeometry y="38" width="155" height="19" as="geometry" />
        </mxCell>
        <mxCell id="RC3zjSmgozNrkf4qFn7A-143" value="PasswordEncoder" style="swimlane;fontStyle=1;align=center;verticalAlign=top;childLayout=stackLayout;horizontal=1;startSize=38;horizontalStack=0;resizeParent=1;resizeParentMax=0;resizeLast=0;collapsible=0;marginBottom=0;" vertex="1" parent="1">
          <mxGeometry x="2686" y="1612" width="154" height="57" as="geometry" />
        </mxCell>
        <mxCell id="RC3zjSmgozNrkf4qFn7A-144" style="line;strokeWidth=1;fillColor=none;align=left;verticalAlign=middle;spacingTop=-1;spacingLeft=3;spacingRight=3;rotatable=0;labelPosition=right;points=[];portConstraint=eastwest;strokeColor=inherit;" vertex="1" parent="RC3zjSmgozNrkf4qFn7A-143">
          <mxGeometry y="38" width="154" height="19" as="geometry" />
        </mxCell>
        <mxCell id="RC3zjSmgozNrkf4qFn7A-145" value="SpringApplication" style="swimlane;fontStyle=1;align=center;verticalAlign=top;childLayout=stackLayout;horizontal=1;startSize=38;horizontalStack=0;resizeParent=1;resizeParentMax=0;resizeLast=0;collapsible=0;marginBottom=0;" vertex="1" parent="1">
          <mxGeometry x="3019" y="1333" width="155" height="57" as="geometry" />
        </mxCell>
        <mxCell id="RC3zjSmgozNrkf4qFn7A-146" style="line;strokeWidth=1;fillColor=none;align=left;verticalAlign=middle;spacingTop=-1;spacingLeft=3;spacingRight=3;rotatable=0;labelPosition=right;points=[];portConstraint=eastwest;strokeColor=inherit;" vertex="1" parent="RC3zjSmgozNrkf4qFn7A-145">
          <mxGeometry y="38" width="155" height="19" as="geometry" />
        </mxCell>
        <mxCell id="RC3zjSmgozNrkf4qFn7A-147" value="has" style="curved=1;startArrow=none;endArrow=open;endSize=12;exitX=0;exitY=0.69;entryX=0.5;entryY=0;rounded=0;" edge="1" parent="1" source="RC3zjSmgozNrkf4qFn7A-59" target="RC3zjSmgozNrkf4qFn7A-65">
          <mxGeometry relative="1" as="geometry">
            <Array as="points">
              <mxPoint x="348" y="1218" />
            </Array>
          </mxGeometry>
        </mxCell>
        <mxCell id="RC3zjSmgozNrkf4qFn7A-148" value="creates" style="curved=1;startArrow=none;endArrow=open;endSize=12;exitX=1;exitY=0.75;entryX=0.5;entryY=0;rounded=0;" edge="1" parent="1" source="RC3zjSmgozNrkf4qFn7A-59" target="RC3zjSmgozNrkf4qFn7A-137">
          <mxGeometry relative="1" as="geometry">
            <Array as="points">
              <mxPoint x="2496" y="1218" />
            </Array>
          </mxGeometry>
        </mxCell>
        <mxCell id="RC3zjSmgozNrkf4qFn7A-149" value="uses" style="curved=1;startArrow=none;endArrow=open;endSize=12;exitX=1;exitY=0.72;entryX=0.17;entryY=0;rounded=0;" edge="1" parent="1" source="RC3zjSmgozNrkf4qFn7A-65" target="RC3zjSmgozNrkf4qFn7A-127">
          <mxGeometry relative="1" as="geometry">
            <Array as="points">
              <mxPoint x="1450" y="1531" />
            </Array>
          </mxGeometry>
        </mxCell>
        <mxCell id="RC3zjSmgozNrkf4qFn7A-150" value="uses" style="curved=1;startArrow=none;endArrow=open;endSize=12;exitX=0.5;exitY=1;entryX=0;entryY=0.18;rounded=0;" edge="1" parent="1" source="RC3zjSmgozNrkf4qFn7A-65" target="RC3zjSmgozNrkf4qFn7A-111">
          <mxGeometry relative="1" as="geometry">
            <Array as="points">
              <mxPoint x="348" y="1531" />
            </Array>
          </mxGeometry>
        </mxCell>
        <mxCell id="RC3zjSmgozNrkf4qFn7A-151" value="uses" style="curved=1;startArrow=none;endArrow=open;endSize=12;exitX=1;exitY=0.68;entryX=0.5;entryY=0;rounded=0;" edge="1" parent="1" source="RC3zjSmgozNrkf4qFn7A-71" target="RC3zjSmgozNrkf4qFn7A-139">
          <mxGeometry relative="1" as="geometry">
            <Array as="points">
              <mxPoint x="2537" y="1531" />
            </Array>
          </mxGeometry>
        </mxCell>
        <mxCell id="RC3zjSmgozNrkf4qFn7A-152" value="uses" style="curved=1;startArrow=none;endArrow=open;endSize=12;exitX=0.67;exitY=1;entryX=0.27;entryY=0;rounded=0;" edge="1" parent="1" source="RC3zjSmgozNrkf4qFn7A-71" target="RC3zjSmgozNrkf4qFn7A-127">
          <mxGeometry relative="1" as="geometry">
            <Array as="points">
              <mxPoint x="1504" y="1531" />
            </Array>
          </mxGeometry>
        </mxCell>
        <mxCell id="RC3zjSmgozNrkf4qFn7A-153" value="uses" style="curved=1;startArrow=none;endArrow=open;endSize=12;exitX=0.79;exitY=1;entryX=0.19;entryY=0;rounded=0;" edge="1" parent="1" source="RC3zjSmgozNrkf4qFn7A-76" target="RC3zjSmgozNrkf4qFn7A-131">
          <mxGeometry relative="1" as="geometry">
            <Array as="points">
              <mxPoint x="1938" y="1531" />
            </Array>
          </mxGeometry>
        </mxCell>
        <mxCell id="RC3zjSmgozNrkf4qFn7A-154" value="uses" style="curved=1;startArrow=none;endArrow=open;endSize=12;exitX=0.5;exitY=1;entryX=0.5;entryY=0;rounded=0;" edge="1" parent="1" source="RC3zjSmgozNrkf4qFn7A-86" target="RC3zjSmgozNrkf4qFn7A-92">
          <mxGeometry relative="1" as="geometry">
            <Array as="points" />
          </mxGeometry>
        </mxCell>
        <mxCell id="RC3zjSmgozNrkf4qFn7A-155" value="has" style="curved=1;startArrow=none;endArrow=open;endSize=12;exitX=0.4;exitY=1;entryX=1;entryY=0.25;rounded=0;" edge="1" parent="1" source="RC3zjSmgozNrkf4qFn7A-97" target="RC3zjSmgozNrkf4qFn7A-92">
          <mxGeometry relative="1" as="geometry">
            <Array as="points">
              <mxPoint x="824" y="2234" />
            </Array>
          </mxGeometry>
        </mxCell>
        <mxCell id="RC3zjSmgozNrkf4qFn7A-156" value="implements" style="curved=1;startArrow=none;endArrow=open;endSize=12;exitX=0.71;exitY=1;entryX=0.5;entryY=0;rounded=0;" edge="1" parent="1" source="RC3zjSmgozNrkf4qFn7A-97" target="RC3zjSmgozNrkf4qFn7A-141">
          <mxGeometry relative="1" as="geometry">
            <Array as="points">
              <mxPoint x="938" y="2234" />
            </Array>
          </mxGeometry>
        </mxCell>
        <mxCell id="RC3zjSmgozNrkf4qFn7A-157" value="finds" style="curved=1;startArrow=none;endArrow=open;endSize=12;exitX=0.5;exitY=1;entryX=0.5;entryY=0;rounded=0;" edge="1" parent="1" source="RC3zjSmgozNrkf4qFn7A-111" target="RC3zjSmgozNrkf4qFn7A-97">
          <mxGeometry relative="1" as="geometry">
            <Array as="points" />
          </mxGeometry>
        </mxCell>
        <mxCell id="RC3zjSmgozNrkf4qFn7A-158" value="uses" style="curved=1;startArrow=none;endArrow=open;endSize=12;exitX=0.5;exitY=1;entryX=0.54;entryY=0;rounded=0;" edge="1" parent="1" source="RC3zjSmgozNrkf4qFn7A-114" target="RC3zjSmgozNrkf4qFn7A-111">
          <mxGeometry relative="1" as="geometry">
            <Array as="points">
              <mxPoint x="888" y="1531" />
            </Array>
          </mxGeometry>
        </mxCell>
        <mxCell id="RC3zjSmgozNrkf4qFn7A-159" value="uses" style="curved=1;startArrow=none;endArrow=open;endSize=12;exitX=0;exitY=0.71;entryX=1;entryY=0.2;rounded=0;" edge="1" parent="1" source="RC3zjSmgozNrkf4qFn7A-122" target="RC3zjSmgozNrkf4qFn7A-111">
          <mxGeometry relative="1" as="geometry">
            <Array as="points">
              <mxPoint x="1395" y="1531" />
            </Array>
          </mxGeometry>
        </mxCell>
        <mxCell id="RC3zjSmgozNrkf4qFn7A-160" value="uses" style="curved=1;startArrow=none;endArrow=open;endSize=12;exitX=1;exitY=0.79;entryX=0.5;entryY=0;rounded=0;" edge="1" parent="1" source="RC3zjSmgozNrkf4qFn7A-122" target="RC3zjSmgozNrkf4qFn7A-143">
          <mxGeometry relative="1" as="geometry">
            <Array as="points">
              <mxPoint x="2763" y="1531" />
            </Array>
          </mxGeometry>
        </mxCell>
        <mxCell id="RC3zjSmgozNrkf4qFn7A-161" value="implements" style="curved=1;startArrow=none;endArrow=open;endSize=12;exitX=1;exitY=0.63;entryX=0.89;entryY=0;rounded=0;" edge="1" parent="1" source="RC3zjSmgozNrkf4qFn7A-114" target="RC3zjSmgozNrkf4qFn7A-127">
          <mxGeometry relative="1" as="geometry">
            <Array as="points">
              <mxPoint x="1826" y="1531" />
            </Array>
          </mxGeometry>
        </mxCell>
        <mxCell id="RC3zjSmgozNrkf4qFn7A-162" value="implements" style="curved=1;startArrow=none;endArrow=open;endSize=12;exitX=0.72;exitY=1;entryX=0.81;entryY=0;rounded=0;" edge="1" parent="1" source="RC3zjSmgozNrkf4qFn7A-122" target="RC3zjSmgozNrkf4qFn7A-131">
          <mxGeometry relative="1" as="geometry">
            <Array as="points">
              <mxPoint x="2326" y="1531" />
            </Array>
          </mxGeometry>
        </mxCell>
        <mxCell id="RC3zjSmgozNrkf4qFn7A-163" value="starts" style="curved=1;startArrow=none;endArrow=open;endSize=12;exitX=0.5;exitY=1;entryX=0.5;entryY=0;rounded=0;" edge="1" parent="1" source="RC3zjSmgozNrkf4qFn7A-134" target="RC3zjSmgozNrkf4qFn7A-145">
          <mxGeometry relative="1" as="geometry">
            <Array as="points" />
          </mxGeometry>
        </mxCell>
      </root>
    </mxGraphModel>
  </diagram>
</mxfile>
